<svg xmlns="http://www.w3.org/2000/svg" width="70" height="36" fill="none" viewBox="0 0 70 36">
  <path fill="#1378C6" d="M7.634 34.897c-3.726 0-6.816-3.09-6.816-6.816V7.634c0-3.726 3.09-6.816 6.816-6.816h54.71c3.725 0 6.815 3.09 6.815 6.816V28.08c0 3.727-3.09 6.816-6.816 6.816H7.634Z"/>
  <path fill="#fff" d="M62.14 1.649c3.262 0 5.98 2.748 5.98 6.046v20.61c0 3.298-2.718 6.046-5.98 6.046H7.61c-3.262 0-5.98-2.748-5.98-6.046V7.695c0-3.298 2.718-6.046 5.98-6.046h54.53Zm0-1.649H7.61C3.441 0 0 3.48 0 7.695v20.61C0 32.52 3.442 36 7.61 36h54.53c4.168 0 7.61-3.48 7.61-7.695V7.695C69.75 3.48 66.308 0 62.14 0Z"/>
  <path fill="#fff" d="M56.345 10.36c0-.818.636-1.454 1.454-1.454s1.454.636 1.454 1.454-.636 1.545-1.454 1.545-1.454-.727-1.454-1.545Zm2.635 0c0-.636-.545-1.272-1.181-1.272s-1.182.545-1.182 1.272.546 1.272 1.182 1.272c.636 0 1.181-.545 1.181-1.272Zm-1.636-.727h.546c.272 0 .454.091.454.364 0 .181-.09.363-.273.363l.364.545-.364.091-.272-.545h-.182v.545h-.364V9.633h.091Zm.364.636h.09c.182 0 .273-.09.273-.181 0-.182-.09-.182-.181-.182h-.182v.363Zm3.181 15.813h-4l-1.544-4.544h-5.816c-1.727 1.454-3.635 1.727-3.635 1.727L51.619 9.27h2.908l6.362 16.812Zm-10.36-6.816h4.27l-2.09-6.361-2.18 6.362Zm-36.443 7.089c-2 0-3.817-.636-4.998-1.727l1.363-2.09.09.091c.91.727 1.91 1.272 3.363 1.272 1.182 0 2.454-.545 2.454-2.18 0-1.455-1.454-2.546-2.726-3.454-2.181-1.636-3.817-2.908-3.817-5.18 0-2.363 2.363-4.18 5.362-4.18 2 0 3.544.726 4.271 1.453l.09.091-1.362 1.909-.091-.091c-.545-.364-1.545-.91-2.636-.91-1.272 0-2.09.637-2.09 1.637s1 1.817 3.09 3.362c2.181 1.727 3.453 3.181 3.453 5.362.091 2.272-2.09 4.635-5.816 4.635Zm11.541-.273h-3.544V9.18h5.362c3.998 0 6.18 1.727 6.18 4.907 0 1.909-1.091 4.635-4.272 5.362-1.636.364-3-.545-2.726-2.09 1.817.182 3.362-.909 3.362-3.18 0-1.637-1.09-2.545-2.999-2.545h-1.363v14.45Z"/>
  <path fill="#fff" d="M44.35 8.906c-2.909 0-5.362.909-7.18 2.636-1.727 1.636-2.636 3.817-2.636 6.18 0 1.726.455 3.453 1.273 4.816.727 1.272 1.817 2.272 3.18 3a10.121 10.121 0 0 0 4.908 1.271h.091c3.726 0 6.089-1.817 6.452-3.09.182-.545-.09-1-.545-1.272l-.09-.09-.092.09a7.723 7.723 0 0 1-4.998 1.818c-1 0-1.909-.182-2.726-.455-2.181-.817-3.636-3.18-3.636-5.907 0-3.635 2.363-6.18 5.817-6.18 1.545 0 2.908.637 3.362.91l.182.09.09-.182.91-2.18.09-.092-.09-.09a8.274 8.274 0 0 0-4.363-1.273Z"/>
</svg>
